<svg width="153" height="110" viewBox="0 0 153 110" fill="none" xmlns="http://www.w3.org/2000/svg">
<path d="M3.68794 95.7574C2.54009 95.7574 1.63662 95.2946 0.977527 94.3689C0.325842 93.4358 0 91.9103 0 89.7923V81.4611C0 80.6021 0.0703523 79.8245 0.211057 79.1284C0.351762 78.4323 0.581332 77.8361 0.899769 77.3399C1.21821 76.8438 1.64402 76.4661 2.17722 76.2069C2.71782 75.9403 3.38061 75.807 4.1656 75.807C5.00242 75.807 5.67262 75.9403 6.17619 76.2069C6.68717 76.4735 7.07596 76.8586 7.34256 77.3622C7.61656 77.8583 7.798 78.4619 7.88686 79.1728C7.98314 79.8763 8.03127 80.665 8.03127 81.5389V82.9941H5.57635V80.6613C5.57635 79.743 5.48378 79.0765 5.29864 78.6618C5.1135 78.2397 4.74323 78.0287 4.18781 78.0287C3.58797 78.0287 3.16956 78.2767 2.93258 78.7729C2.70301 79.2617 2.58822 80.1355 2.58822 81.3945V89.7257C2.58822 91.1105 2.6845 92.1028 2.87704 92.7027C3.07699 93.2951 3.4917 93.5913 4.12116 93.5913C4.72842 93.5913 5.14683 93.2914 5.3764 92.6916C5.60597 92.0843 5.72075 91.0735 5.72075 89.659V87.0708H4.1656V85.1379H8.03127V95.5686H6.76493L6.39836 93.8913C6.20581 94.4911 5.86886 94.9539 5.38751 95.2798C4.90615 95.5982 4.33963 95.7574 3.68794 95.7574Z" fill="white"/>
<path d="M10.9416 95.5686V76.0181H13.5188V93.4025H17.1956V95.5686H10.9416Z" fill="white"/>
<path d="M17.851 95.5686L20.7391 76.0181H23.9938L27.1153 95.5686H24.6937L24.1716 91.9362H20.7947L20.317 95.5686H17.851ZM21.0613 89.859H23.8716L22.4276 79.7393H22.3943L21.0613 89.859Z" fill="white"/>
<path d="M29.1147 95.5686V76.0181H32.2028L35.1132 91.092L37.8792 76.0181H40.9784V95.5686H38.7345V88.2149L38.89 81.1723L36.0685 95.5353H34.1246L31.192 81.1723L31.3475 88.2149V95.5686H29.1147Z" fill="white"/>
<path d="M47.9432 95.7908C46.9509 95.7908 46.1548 95.576 45.555 95.1465C44.9551 94.717 44.5219 94.0764 44.2553 93.2248C43.9887 92.3657 43.8554 91.2956 43.8554 90.0145V81.2612C43.8554 80.1355 43.9813 79.1654 44.2331 78.3508C44.4923 77.5288 44.9218 76.8956 45.5216 76.4513C46.1215 75.9995 46.9435 75.7737 47.9877 75.7737C48.7727 75.7737 49.4206 75.9033 49.9316 76.1625C50.45 76.4143 50.8573 76.7808 51.1535 77.2622C51.4498 77.7361 51.6571 78.3101 51.7756 78.984C51.9015 79.6579 51.9644 80.4169 51.9644 81.2612V90.0145C51.9644 91.2956 51.8348 92.3657 51.5756 93.2248C51.3239 94.0764 50.9017 94.717 50.3093 95.1465C49.7243 95.576 48.9356 95.7908 47.9432 95.7908ZM47.9432 93.558C48.3431 93.558 48.6468 93.4432 48.8541 93.2136C49.0615 92.9841 49.2022 92.6101 49.2762 92.0917C49.3503 91.5733 49.3873 90.8883 49.3873 90.0367V81.1279C49.3873 80.0911 49.2985 79.3135 49.1207 78.7951C48.943 78.2693 48.5653 78.0064 47.9877 78.0064C47.3878 78.0064 46.9805 78.2619 46.7658 78.7729C46.551 79.2839 46.4436 80.0652 46.4436 81.1168V90.0367C46.4436 90.8957 46.4807 91.5844 46.5547 92.1028C46.6288 92.6138 46.7732 92.9841 46.9879 93.2136C47.2101 93.4432 47.5285 93.558 47.9432 93.558Z" fill="white"/>
<path d="M58.7516 95.8019C57.7667 95.8019 56.9743 95.613 56.3744 95.2354C55.782 94.8503 55.3525 94.2689 55.0859 93.4914C54.8193 92.7138 54.686 91.7325 54.686 90.5477V76.0181H57.2742V90.4921C57.2742 91.129 57.2964 91.6807 57.3408 92.1473C57.3927 92.6138 57.5223 92.973 57.7296 93.2248C57.937 93.4765 58.2776 93.6024 58.7516 93.6024C59.2255 93.6024 59.5625 93.4802 59.7624 93.2359C59.9698 92.9841 60.0957 92.6249 60.1401 92.1584C60.1846 91.6918 60.2068 91.1401 60.2068 90.5032V76.0181H62.7839V90.5477C62.7839 91.7325 62.6543 92.7138 62.3951 93.4914C62.1359 94.2689 61.7101 94.8503 61.1176 95.2354C60.5326 95.613 59.7439 95.8019 58.7516 95.8019Z" fill="white"/>
<path d="M65.7276 95.5686V76.0181H70.1709C71.2002 76.0181 71.963 76.2106 72.4592 76.5957C72.9628 76.9734 73.2923 77.5399 73.4478 78.2953C73.6033 79.0432 73.6811 79.9726 73.6811 81.0834C73.6811 82.2683 73.5589 83.2051 73.3145 83.8938C73.0775 84.5751 72.6036 85.0232 71.8927 85.2379C72.2407 85.2972 72.5295 85.4453 72.7591 85.6822C72.9961 85.9118 73.1812 86.2673 73.3145 86.7486C73.4552 87.2226 73.5552 87.8521 73.6144 88.637C73.6737 89.4146 73.7033 90.3847 73.7033 91.5474C73.7033 91.6511 73.7033 91.8436 73.7033 92.125C73.7033 92.4064 73.7033 92.7249 73.7033 93.0803C73.7107 93.4358 73.7181 93.7913 73.7255 94.1467C73.7403 94.4948 73.7551 94.7984 73.77 95.0576C73.7922 95.3168 73.8181 95.4871 73.8477 95.5686H71.2706C71.2484 95.5168 71.2262 95.3538 71.2039 95.0798C71.1891 94.7984 71.1743 94.4356 71.1595 93.9912C71.1447 93.5469 71.1336 93.047 71.1262 92.4916C71.1262 91.9288 71.1262 91.3364 71.1262 90.7143C71.1262 90.0848 71.1262 89.4479 71.1262 88.8037C71.1262 88.1298 71.0892 87.6188 71.0151 87.2707C70.941 86.9153 70.7892 86.6709 70.5597 86.5376C70.3301 86.3969 69.9783 86.3117 69.5044 86.2821L68.3047 86.2154V95.5686H65.7276ZM68.3158 84.2715H69.6599C70.0598 84.2715 70.3634 84.19 70.5708 84.0271C70.7855 83.8568 70.9299 83.5347 71.004 83.0607C71.0855 82.5867 71.1262 81.8869 71.1262 80.9612V80.839C71.1262 80.0615 71.0892 79.4727 71.0151 79.0728C70.941 78.6729 70.7929 78.4026 70.5708 78.2619C70.356 78.1138 70.0265 78.0398 69.5821 78.0398H68.3158V84.2715Z" fill="white"/>
<path d="M85.1115 95.8019C84.1636 95.8019 83.3934 95.576 82.801 95.1243C82.2085 94.6725 81.7753 94.0097 81.5013 93.1359C81.2273 92.262 81.0903 91.2031 81.0903 89.9589V81.6611C81.0903 80.7798 81.1532 79.9837 81.2791 79.2728C81.405 78.5544 81.6198 77.9361 81.9234 77.4177C82.2344 76.8993 82.6529 76.5031 83.1786 76.2291C83.7118 75.9477 84.382 75.807 85.1892 75.807C85.9372 75.807 86.5593 75.9366 87.0554 76.1958C87.559 76.4476 87.9552 76.8142 88.244 77.2955C88.5402 77.7769 88.7476 78.3508 88.8661 79.0173C88.992 79.6838 89.0549 80.4243 89.0549 81.2389V83.6272H86.5445V81.3167C86.5445 80.2059 86.4593 79.3802 86.289 78.8396C86.1186 78.299 85.7521 78.0287 85.1892 78.0287C84.5894 78.0287 84.1858 78.3101 83.9784 78.8729C83.7785 79.4357 83.6785 80.2466 83.6785 81.3056V90.0478C83.6785 90.8846 83.7193 91.5659 83.8007 92.0917C83.8822 92.6101 84.0266 92.9915 84.2339 93.2359C84.4413 93.4728 84.7375 93.5913 85.1226 93.5913C85.6928 93.5913 86.0705 93.3136 86.2556 92.7582C86.4482 92.1954 86.5445 91.2845 86.5445 90.0256V87.5929H89.0882V89.9923C89.0882 91.2734 88.9623 92.3472 88.7106 93.2136C88.4588 94.0727 88.0404 94.7207 87.4553 95.1576C86.8777 95.5871 86.0964 95.8019 85.1115 95.8019Z" fill="white"/>
<path d="M90.6767 95.5686L93.5649 76.0181H96.8196L99.941 95.5686H97.5194L96.9973 91.9362H93.6204L93.1428 95.5686H90.6767ZM93.887 89.859H96.6974L95.2533 79.7393H95.22L93.887 89.859Z" fill="white"/>
<path d="M101.94 95.5686V76.0181H105.029L107.939 91.092L110.705 76.0181H113.804V95.5686H111.56V88.2149L111.716 81.1723L108.894 95.5353H106.95L104.018 81.1723L104.173 88.2149V95.5686H101.94Z" fill="white"/>
<path d="M116.914 95.5686V76.0181H121.08C121.858 76.0181 122.494 76.144 122.991 76.3957C123.487 76.6401 123.872 77.003 124.146 77.4844C124.42 77.9657 124.609 78.5507 124.712 79.2395C124.824 79.9282 124.879 80.7095 124.879 81.5833V81.9277C124.879 83.2162 124.772 84.3048 124.557 85.1935C124.35 86.0747 123.976 86.7449 123.435 87.2041C122.894 87.6558 122.124 87.8817 121.124 87.8817H119.492V95.5686H116.914ZM119.492 85.7378H120.736C121.18 85.7378 121.513 85.6193 121.735 85.3823C121.965 85.1379 122.117 84.738 122.191 84.1826C122.272 83.6198 122.313 82.8645 122.313 81.9165V81.5389C122.313 80.3614 122.217 79.4838 122.024 78.9062C121.839 78.3286 121.424 78.0398 120.78 78.0398H119.492V85.7378Z" fill="white"/>
<path d="M127.09 95.5686V76.0181H129.678V95.5686H127.09Z" fill="white"/>
<path d="M132.799 95.5686V76.0181H134.788L139.153 88.6704L138.931 83.1496V76.0181H141.23V95.5686H139.364L135.032 82.683L135.176 87.6928V95.5686H132.799Z" fill="white"/>
<path d="M147.784 95.7574C146.636 95.7574 145.733 95.2946 145.074 94.3689C144.422 93.4358 144.096 91.9103 144.096 89.7923V81.4611C144.096 80.6021 144.167 79.8245 144.307 79.1284C144.448 78.4323 144.678 77.8361 144.996 77.3399C145.315 76.8438 145.74 76.4661 146.274 76.2069C146.814 75.9403 147.477 75.807 148.262 75.807C149.099 75.807 149.769 75.9403 150.273 76.2069C150.784 76.4735 151.172 76.8586 151.439 77.3622C151.713 77.8583 151.894 78.4619 151.983 79.1728C152.079 79.8763 152.128 80.665 152.128 81.5389V82.9941H149.673V80.6613C149.673 79.743 149.58 79.0765 149.395 78.6618C149.21 78.2397 148.84 78.0287 148.284 78.0287C147.684 78.0287 147.266 78.2767 147.029 78.7729C146.799 79.2617 146.685 80.1355 146.685 81.3945V89.7257C146.685 91.1105 146.781 92.1028 146.973 92.7027C147.173 93.2951 147.588 93.5913 148.217 93.5913C148.825 93.5913 149.243 93.2914 149.473 92.6916C149.702 92.0843 149.817 91.0735 149.817 89.659V87.0708H148.262V85.1379H152.128V95.5686H150.861L150.495 93.8913C150.302 94.4911 149.965 94.9539 149.484 95.2798C149.002 95.5982 148.436 95.7574 147.784 95.7574Z" fill="white"/>
<path fill-rule="evenodd" clip-rule="evenodd" d="M74.403 7.1987e-05C74.793 -0.00472826 75.1458 0.23092 75.2907 0.593046L88.8475 34.4681L95.2233 17.466C95.3614 17.0977 95.7135 16.8537 96.1069 16.8537C96.5003 16.8537 96.8524 17.0977 96.9905 17.4661L114 62.8281L112.233 63.4907L96.1069 20.485L89.7597 37.4107C89.6229 37.7755 89.276 38.0187 88.8864 38.023C88.4969 38.0273 88.1448 37.7917 88 37.43L74.4469 3.56405L63.5183 32.9485C63.3916 33.2891 63.0806 33.5267 62.7186 33.5594C62.3567 33.592 62.0081 33.4139 61.8225 33.1015L57.1573 25.2477L40.3148 63.5393L38.5872 62.7794L56.1682 22.809C56.3105 22.4854 56.6218 22.2685 56.9746 22.247C57.3275 22.2255 57.6627 22.403 57.8433 22.707L62.4373 30.4409L73.5301 0.614715C73.6661 0.249132 74.013 0.00487224 74.403 7.1987e-05Z" fill="white"/>
<path d="M53.6059 30.9787L55.6675 32.9382L57.4948 30.7263L59.6225 32.6496L61.3295 30.4197L57.0319 23.189L53.6059 30.9787Z" fill="white"/>
<path d="M70.2614 13.7642L72.323 16.2406L74.5709 13.3855L77.42 16.3848L78.8204 12.9407L74.06 2.20581L70.2614 13.7642Z" fill="white"/>
<path d="M92.0137 30.3175L94.0754 32.7939L96.3233 29.9449L99.1723 32.9381L100.573 29.4941L95.8124 18.7651L92.0137 30.3175Z" fill="white"/>
<path d="M68.2718 41.449L54.5255 62.9789H82.012L68.2718 41.449Z" fill="#97A483"/>
<path opacity="0.4" d="M68.2718 48.6738L60.3198 62.9791H76.2238L68.2718 48.6738Z" fill="#F7F2DB"/>
<path d="M68.2718 48.6738L64.5993 62.9791H71.9443L68.2718 48.6738Z" fill="#F7F2DB"/>
<path opacity="0.72" d="M84.296 41.449H70.5498L84.296 62.9789H98.0363L84.296 41.449Z" fill="#97A483"/>
<path fill-rule="evenodd" clip-rule="evenodd" d="M31.6132 63.1593C31.6132 62.8506 31.8634 62.6003 32.1721 62.6003H120.39C120.698 62.6003 120.949 62.8506 120.949 63.1593C120.949 63.468 120.698 63.7183 120.39 63.7183H32.1721C31.8634 63.7183 31.6132 63.468 31.6132 63.1593Z" fill="white"/>
<path fill-rule="evenodd" clip-rule="evenodd" d="M31.6132 106.688C31.6132 106.345 31.8917 106.066 32.2353 106.066H119.587C119.931 106.066 120.209 106.345 120.209 106.688C120.209 107.032 119.931 107.31 119.587 107.31H32.2353C31.8917 107.31 31.6132 107.032 31.6132 106.688Z" fill="white"/>
<path d="M75.9083 103.382L71.214 106.694L75.9083 110L80.6026 106.694L75.9083 103.382Z" fill="white"/>
</svg>
